<svg width="16" height="16" viewBox="0 0 16 16" fill="none" xmlns="http://www.w3.org/2000/svg">
<path d="M9.17686 0.400024C8.97031 0.419067 8.81797 0.603637 8.83701 0.81018C8.85606 1.01672 9.04063 1.16907 9.24717 1.15002H14.1222L1.14953 14.1227V9.24767C1.15246 9.13194 1.10119 9.02208 1.01183 8.94884C0.923941 8.8756 0.805289 8.84777 0.692496 8.87267C0.51818 8.91222 0.395133 9.06896 0.399528 9.24767V15.4H6.55186C6.68663 15.4015 6.8126 15.3312 6.88145 15.214C6.94883 15.0968 6.94883 14.9532 6.88145 14.836C6.8126 14.7189 6.68663 14.6485 6.55186 14.65H1.67687L14.6495 1.67737V6.55236C14.648 6.68712 14.7184 6.8131 14.8355 6.88195C14.9527 6.94933 15.0963 6.94933 15.2135 6.88195C15.3307 6.8131 15.401 6.68712 15.3995 6.55236V0.400024H9.24717C9.23545 0.400024 9.22373 0.400024 9.21201 0.400024C9.20029 0.400024 9.18858 0.400024 9.17686 0.400024Z" fill="#9E3D5F"/>
</svg>
