<svg width="16" height="11" viewBox="0 0 16 11" fill="none" xmlns="http://www.w3.org/2000/svg">
<path d="M14.08 0.880005C13.5498 0.880005 13.12 1.30976 13.12 1.84C13.12 2.37024 13.5498 2.8 14.08 2.8C14.6102 2.8 15.04 2.37024 15.04 1.84C15.04 1.30976 14.6102 0.880005 14.08 0.880005ZM14.08 1.52C14.2566 1.52 14.4 1.66336 14.4 1.84C14.4 2.01664 14.2566 2.16 14.08 2.16C13.9034 2.16 13.76 2.01664 13.76 1.84C13.76 1.66336 13.9034 1.52 14.08 1.52ZM4.54625 2.14875C3.77089 2.14875 3.27151 2.57207 3.24687 3.24375H3.93375C3.95327 2.93623 4.18161 2.74188 4.52625 2.74188C4.87345 2.74188 5.095 2.92394 5.095 3.20938C5.095 3.49962 4.86603 3.69625 4.52875 3.69625H4.09562V4.25H4.53625C4.93497 4.25 5.17875 4.4418 5.17875 4.75188C5.17875 5.0546 4.92027 5.26375 4.54875 5.26375C4.16731 5.26375 3.91333 5.07454 3.89125 4.77438H3.18062C3.21262 5.4435 3.74861 5.88188 4.54125 5.88188C5.35085 5.88188 5.93687 5.43147 5.93687 4.80875C5.93687 4.34155 5.63141 4.01659 5.14437 3.9625V3.91813C5.54053 3.83685 5.79875 3.51651 5.79875 3.10563C5.79875 2.54723 5.27457 2.14875 4.54625 2.14875ZM8.00625 2.14875C7.08081 2.14875 6.525 2.86237 6.525 4.04125C6.525 4.52861 6.6257 4.93666 6.8225 5.23938C7.06634 5.65538 7.47982 5.88188 7.99437 5.88188C8.78926 5.88188 9.3525 5.35762 9.3525 4.61938C9.3525 3.94002 8.85799 3.44063 8.18375 3.44063C7.77031 3.44063 7.44036 3.62966 7.27812 3.96438H7.23375C7.21903 3.2287 7.51421 2.75875 8.00125 2.75875C8.27933 2.75875 8.50088 2.90608 8.57 3.14H9.30562C9.2045 2.54704 8.68049 2.14875 8.00625 2.14875ZM11.39 2.14875C10.5164 2.14875 9.98 2.83243 9.98 4.00875C9.98 5.18763 10.5116 5.88188 11.39 5.88188C12.2684 5.88188 12.7994 5.18501 12.7994 4.01125C12.7994 2.83269 12.261 2.14875 11.39 2.14875ZM11.39 2.75625C11.7958 2.75625 12.0469 3.18187 12.0469 4.00875C12.0469 4.84075 11.7983 5.27625 11.39 5.27625C10.9842 5.27625 10.7331 4.83819 10.7331 4.00875C10.7331 3.18443 10.9865 2.75625 11.39 2.75625ZM7.98875 4.01375C8.36059 4.01375 8.63125 4.27933 8.63125 4.64125C8.63125 4.99837 8.35073 5.27157 7.98625 5.27126C7.62209 5.27126 7.34375 4.99567 7.34375 4.63375C7.34375 4.27951 7.61691 4.01375 7.98875 4.01375ZM13.6962 4.82125C13.6244 4.82486 13.5559 4.85256 13.5017 4.89988C13.4476 4.9472 13.4109 5.01138 13.3977 5.08208C13.3845 5.15278 13.3955 5.22586 13.4289 5.28955C13.4623 5.35324 13.5162 5.40382 13.5819 5.43313C14.1658 5.70426 14.6235 6.01616 14.9225 6.335C15.2215 6.65385 15.36 6.96573 15.36 7.28C15.36 7.61808 15.199 7.95556 14.8519 8.2975C14.5048 8.63945 13.9757 8.96908 13.3075 9.2475C11.971 9.80436 10.0848 10.16 8 10.16C5.91523 10.16 4.02896 9.80436 2.6925 9.2475C2.02427 8.96908 1.49523 8.63945 1.14812 8.2975C0.801021 7.95556 0.64 7.61808 0.64 7.28C0.64 6.97516 0.769677 6.67336 1.05062 6.36375C1.33157 6.05415 1.76251 5.74996 2.31437 5.4825C2.35222 5.46421 2.3861 5.43864 2.41406 5.40725C2.44203 5.37586 2.46354 5.33927 2.47736 5.29957C2.49118 5.25986 2.49704 5.21783 2.49462 5.17586C2.49219 5.13389 2.48152 5.09281 2.46321 5.05496C2.4449 5.01712 2.41932 4.98325 2.38792 4.9553C2.35653 4.92734 2.31993 4.90584 2.28022 4.89204C2.24052 4.87823 2.19848 4.87237 2.15651 4.87481C2.11454 4.87725 2.07346 4.88794 2.03562 4.90625C1.43133 5.19912 0.934407 5.53913 0.576875 5.93313C0.219343 6.32713 0 6.78805 0 7.28C0 7.8256 0.268604 8.33001 0.69875 8.75375C1.1289 9.1775 1.72468 9.53748 2.44625 9.83813C3.88939 10.4394 5.84317 10.8 8 10.8C10.1568 10.8 12.1106 10.4394 13.5538 9.83813C14.2753 9.53748 14.8711 9.1775 15.3012 8.75375C15.7314 8.33001 16 7.8256 16 7.28C16 6.77284 15.7669 6.29948 15.3894 5.89688C15.0119 5.49428 14.4885 5.1481 13.8519 4.8525C13.8034 4.82918 13.7499 4.81844 13.6962 4.82125Z" fill="#9E3D5F"/>
</svg>
