<svg width="23" height="13" viewBox="0 0 23 13" fill="none" xmlns="http://www.w3.org/2000/svg">
<path d="M5.75787 12.0078C5.90714 12.0078 6.05299 11.9632 6.17678 11.8798C6.30057 11.7964 6.39666 11.678 6.45276 11.5397C6.50887 11.4014 6.52243 11.2494 6.49171 11.1034C6.46099 10.9573 6.38739 10.8237 6.28033 10.7197L2.56061 7L21.2501 7C21.3494 7.00141 21.4481 6.98304 21.5403 6.94598C21.6326 6.90892 21.7165 6.8539 21.7873 6.78412C21.8581 6.71434 21.9143 6.63118 21.9526 6.53949C21.991 6.4478 22.0107 6.34939 22.0107 6.25C22.0107 6.15061 21.991 6.0522 21.9526 5.96051C21.9143 5.86882 21.8581 5.78566 21.7873 5.71588C21.7165 5.6461 21.6326 5.59108 21.5403 5.55402C21.4481 5.51696 21.3494 5.49859 21.2501 5.5L2.56061 5.5L6.28033 1.78027C6.35231 1.71116 6.40978 1.62839 6.44936 1.53679C6.48895 1.4452 6.50986 1.34662 6.51088 1.24684C6.51189 1.14706 6.49299 1.04808 6.45527 0.955703C6.41755 0.86332 6.36178 0.779393 6.29123 0.708835C6.22067 0.638276 6.13674 0.582506 6.04436 0.544789C5.95198 0.507072 5.853 0.488168 5.75322 0.489182C5.65344 0.490196 5.55487 0.511109 5.46327 0.550696C5.37167 0.590283 5.2889 0.647749 5.21979 0.719728L0.219788 5.71973C0.0791874 5.86038 0.000205994 6.05112 0.000205994 6.25C0.000205994 6.44888 0.0791874 6.63962 0.219788 6.78027L5.21979 11.7803C5.2897 11.8523 5.37334 11.9095 5.46577 11.9486C5.55819 11.9877 5.65752 12.0078 5.75787 12.0078Z" fill="#7B1839"/>
</svg>
