<svg width="30" height="30" viewBox="0 0 30 30" fill="none" xmlns="http://www.w3.org/2000/svg">
<path fill-rule="evenodd" clip-rule="evenodd" d="M22.1563 3.75H8.47919C6.05206 3.75 3.75 5.65317 3.75 8.07692V21.7608C3.75 24.1846 6.05206 26.25 8.47919 26.25H22.1597C24.5835 26.25 26.25 24.1846 26.25 21.7608V8.07692C26.25 5.65317 24.5835 3.75 22.1563 3.75ZM21.3281 16.7375C22.5586 17.8801 22.8155 18.4379 22.8561 18.5055C23.3665 19.354 22.2915 19.4182 22.2915 19.4182L20.2363 19.4486C20.2363 19.4486 19.7934 19.5365 19.212 19.1342C18.4413 18.6103 17.7178 17.2378 17.1499 17.4136C16.5787 17.5962 16.5956 18.8334 16.5956 18.8334C16.5956 18.8334 16.5989 19.0497 16.4705 19.1917C16.3285 19.3404 16.0513 19.3269 16.0513 19.3269H15.1285C15.1285 19.3269 13.0968 19.4959 11.3086 17.6333C9.3581 15.6017 7.63747 11.5959 7.63747 11.5959C7.63747 11.5959 7.53944 11.3424 7.64423 11.2139C7.76593 11.072 8.09721 11.0652 8.09721 11.0652L10.2979 11.0551C10.2979 11.0551 10.5041 11.0922 10.6528 11.2004C10.7745 11.2883 10.8455 11.4573 10.8455 11.4573C10.8455 11.4573 11.2004 12.3599 11.6703 13.1712C12.5898 14.76 13.0191 15.1082 13.3301 14.9392C13.7864 14.689 13.6478 12.6946 13.6478 12.6946C13.6478 12.6946 13.658 11.9678 13.418 11.6433C13.2354 11.3965 12.8906 11.3221 12.7351 11.3018C12.6101 11.2849 12.8163 10.9976 13.0799 10.8691C13.4754 10.6765 14.1752 10.6629 15 10.6731C15.6423 10.6798 15.8282 10.7204 16.0784 10.7812C16.8389 10.9638 16.582 11.6703 16.582 13.3673C16.582 13.9115 16.484 14.6755 16.8761 14.929C17.0451 15.0372 17.4576 14.9459 18.4852 13.1949C18.9754 12.3633 19.3404 11.3897 19.3404 11.3897C19.3404 11.3897 19.4216 11.2139 19.5466 11.1396C19.6751 11.0652 19.8475 11.0889 19.8475 11.0889L22.1631 11.072C22.1631 11.072 22.8561 10.9908 22.971 11.3052C23.0893 11.6331 22.7107 12.4038 21.7642 13.6647C20.2092 15.7335 20.0368 15.5409 21.3281 16.7375Z" fill="#303030"/>
</svg>
