<svg width="30" height="30" viewBox="0 0 30 30" fill="none" xmlns="http://www.w3.org/2000/svg">
<path d="M13.5535 12.7857V16.8929L17.3392 14.8571L13.5535 12.7857Z" fill="#303030"/>
<path d="M20.6071 3.75H9.375C6.28571 3.75 3.75 6.28571 3.75 9.39286V20.625C3.75 23.7143 6.28571 26.25 9.375 26.25H20.6071C23.7143 26.25 26.25 23.7143 26.25 20.6071V9.39286C26.25 6.28571 23.7143 3.75 20.6071 3.75ZM21.9643 15.5536C21.9643 16.7321 21.8571 17.9286 21.8571 17.9286C21.8571 17.9286 21.7321 18.9286 21.3214 19.375C20.7857 19.9643 20.1964 19.9643 19.9286 20C17.9643 20.1429 15.0179 20.1607 15.0179 20.1607C15.0179 20.1607 11.3571 20.1071 10.2321 20C9.92857 19.9464 9.21429 19.9643 8.67857 19.375C8.25 18.9286 8.14286 17.9286 8.14286 17.9286C8.14286 17.9286 8.03571 16.7321 8.03571 15.5536V14.4464C8.03571 13.2679 8.14286 12.0714 8.14286 12.0714C8.14286 12.0714 8.26786 11.0714 8.67857 10.625C9.21429 10.0357 9.80357 10.0179 10.0714 9.98214C12.0536 9.83929 15 9.82143 15 9.82143C15 9.82143 17.9464 9.83929 19.9107 9.98214C20.1786 10.0179 20.7857 10.0357 21.3214 10.6071C21.75 11.0536 21.8571 12.0714 21.8571 12.0714C21.8571 12.0714 21.9643 13.2679 21.9643 14.4464V15.5536Z" fill="#303030"/>
</svg>
