<svg width="17" height="18" viewBox="0 0 17 18" fill="none" xmlns="http://www.w3.org/2000/svg">
<path d="M15.9474 4.12323C15.8423 3.61723 15.597 3.16358 15.2465 2.81461C15.1414 2.70992 15.0187 2.60523 14.8785 2.51799L14.861 2.50055C14.8435 2.4831 14.8259 2.4831 14.8084 2.46565C14.7558 2.43075 14.7033 2.39586 14.6507 2.37841H14.6332C14.2652 2.18648 13.8621 2.08179 13.4065 2.08179H12.3201V1.33152C12.3201 1.15703 12.1799 1 11.9872 1C11.8119 1 11.6542 1.13959 11.6542 1.33152V2.04689H5.36332V1.33152C5.36332 1.15703 5.20561 1 5.03037 1C4.85514 1 4.69743 1.13959 4.69743 1.33152V2.04689H3.61098C3.27804 2.04689 2.94509 2.11668 2.6472 2.23882C2.31425 2.37841 2.01636 2.57034 1.77103 2.81461C1.63084 2.9542 1.50818 3.11123 1.40304 3.26827C1.2979 3.44275 1.21028 3.61723 1.14019 3.80916C1.10514 3.91385 1.07009 4.01854 1.05257 4.12323C1.01752 4.29771 1 4.47219 1 4.64667V6.39149V14.4351C1 15.1505 1.2979 15.7961 1.7535 16.2497C2.22664 16.7208 2.875 17 3.57593 17H13.4241C14.1425 17 14.7909 16.7034 15.2465 16.2497C15.7196 15.7786 16 15.133 16 14.4351V6.39149V4.64667C16 4.47219 15.9825 4.29771 15.9474 4.12323ZM1.68341 4.62923C1.68341 4.48964 1.70093 4.3675 1.71846 4.24537C1.73598 4.12323 1.78855 4.00109 1.8236 3.87895C1.89369 3.72192 1.98131 3.58233 2.06893 3.4602C2.1215 3.3904 2.17407 3.33806 2.22664 3.26827C2.33178 3.16358 2.45444 3.07634 2.5771 2.98909C2.875 2.81461 3.20794 2.70992 3.57593 2.70992H4.66238V3.4253C4.66238 3.59978 4.80257 3.75682 4.99533 3.75682C5.17056 3.75682 5.32827 3.61723 5.32827 3.4253V2.70992H11.7068V3.4253C11.7068 3.59978 11.847 3.75682 12.0397 3.75682C12.215 3.75682 12.3727 3.61723 12.3727 3.4253V2.70992H13.4591C13.8271 2.70992 14.1776 2.81461 14.4579 2.98909C14.5806 3.07634 14.7033 3.16358 14.8084 3.26827C15.0713 3.52999 15.264 3.86151 15.3341 4.24537C15.3516 4.3675 15.3692 4.50709 15.3692 4.62923V6.05998H1.68341V4.62923ZM15.3867 14.4177C15.3867 14.9586 15.1764 15.4471 14.8259 15.7961C14.4755 16.145 13.9848 16.3544 13.4591 16.3544H3.61098C3.08528 16.3544 2.59463 16.145 2.24416 15.7961C1.89369 15.4471 1.68341 14.9586 1.68341 14.4351V6.70556H15.3867V14.4177Z" fill="#303030" stroke="#303030" stroke-width="0.3"/>
</svg>
