<svg width="24" height="24" viewBox="0 0 24 24" fill="none" xmlns="http://www.w3.org/2000/svg">
<path d="M21 18H14V8C14 7.45 14.45 7 15 7H19C19.3 7 19.6 7.15 19.8 7.4L22.8 11.25C22.95 11.45 23 11.65 23 11.85V16C23 17.1 22.1 18 21 18Z" fill="#E4E4E4"/>
<path d="M3 18H14V6C14 4.9 13.1 4 12 4H3.5C2.1 4 1 5.1 1 6.5V16C1 17.1 1.9 18 3 18Z" fill="#9E3D5F"/>
<path d="M18.5 15.5C17.837 15.5 17.2011 15.7634 16.7322 16.2322C16.2634 16.7011 16 17.337 16 18C16 18.663 16.2634 19.2989 16.7322 19.7678C17.2011 20.2366 17.837 20.5 18.5 20.5C19.163 20.5 19.7989 20.2366 20.2678 19.7678C20.7366 19.2989 21 18.663 21 18C21 17.337 20.7366 16.7011 20.2678 16.2322C19.7989 15.7634 19.163 15.5 18.5 15.5ZM7 15.5C6.33696 15.5 5.70107 15.7634 5.23223 16.2322C4.76339 16.7011 4.5 17.337 4.5 18C4.5 18.663 4.76339 19.2989 5.23223 19.7678C5.70107 20.2366 6.33696 20.5 7 20.5C7.66304 20.5 8.29893 20.2366 8.76777 19.7678C9.23661 19.2989 9.5 18.663 9.5 18C9.5 17.337 9.23661 16.7011 8.76777 16.2322C8.29893 15.7634 7.66304 15.5 7 15.5Z" fill="#37474F"/>
<path d="M18.5 16.75C18.1685 16.75 17.8505 16.8817 17.6161 17.1161C17.3817 17.3505 17.25 17.6685 17.25 18C17.25 18.3315 17.3817 18.6495 17.6161 18.8839C17.8505 19.1183 18.1685 19.25 18.5 19.25C18.8315 19.25 19.1495 19.1183 19.3839 18.8839C19.6183 18.6495 19.75 18.3315 19.75 18C19.75 17.6685 19.6183 17.3505 19.3839 17.1161C19.1495 16.8817 18.8315 16.75 18.5 16.75ZM7 16.75C6.66848 16.75 6.35054 16.8817 6.11612 17.1161C5.8817 17.3505 5.75 17.6685 5.75 18C5.75 18.3315 5.8817 18.6495 6.11612 18.8839C6.35054 19.1183 6.66848 19.25 7 19.25C7.33152 19.25 7.64946 19.1183 7.88388 18.8839C8.1183 18.6495 8.25 18.3315 8.25 18C8.25 17.6685 8.1183 17.3505 7.88388 17.1161C7.64946 16.8817 7.33152 16.75 7 16.75Z" fill="#78909C"/>
<path d="M21 13H19.2C19.05 13 18.95 12.95 18.85 12.85L18.15 12.15C18.05 12.05 17.95 12 17.8 12H16C15.7 12 15.5 11.8 15.5 11.5V8.5C15.5 8.2 15.7 8 16 8H18.75C18.9 8 19.05 8.05 19.15 8.2L21.4 10.9C21.45 11 21.5 11.1 21.5 11.2V12.5C21.5 12.8 21.3 13 21 13Z" fill="#455A64"/>
<path d="M7.5 5.5C5 5.5 3 7.5 3 10C3 12.5 5 14.5 7.5 14.5C10 14.5 12 12.5 12 10C12 7.5 10 5.5 7.5 5.5ZM7.5 10.5C7.2 10.5 7 10.3 7 10C7 9.7 7.2 9.5 7.5 9.5C7.8 9.5 8 9.7 8 10C8 10.3 7.8 10.5 7.5 10.5Z" fill="white"/>
<path d="M8.45 10.25C8.45 10.15 8.5 10.1 8.5 10C8.5 9.65 8.3 9.3 8 9.15V6.5H7V9.15C6.7 9.3 6.5 9.65 6.5 10C6.5 10.55 6.95 11 7.5 11C7.6 11 7.65 11 7.75 10.95L8.9 12.1L9.6 11.4L8.45 10.25ZM7.5 10.5C7.2 10.5 7 10.3 7 10C7 9.7 7.2 9.5 7.5 9.5C7.8 9.5 8 9.7 8 10C8 10.3 7.8 10.5 7.5 10.5Z" fill="#37474F"/>
</svg>
