<svg width="16" height="16" viewBox="0 0 16 16" fill="none" xmlns="http://www.w3.org/2000/svg">
<path d="M8 0C3.5888 0 0 3.5888 0 8C0 12.4112 3.5888 16 8 16C12.4112 16 16 12.4112 16 8C16 3.5888 12.4111 0 8 0ZM8 14.6286C4.34509 14.6286 1.37144 11.6549 1.37144 8C1.37144 4.34509 4.34509 1.37144 8 1.37144C11.6549 1.37144 14.6286 4.34509 14.6286 8C14.6286 11.6549 11.6548 14.6286 8 14.6286Z" fill="#E04C4C"/>
<path d="M11.0951 4.90475C10.8272 4.63689 10.3929 4.63689 10.1255 4.90475L7.99961 7.03092L5.87372 4.90475C5.60586 4.63689 5.17197 4.63689 4.90411 4.90475C4.63625 5.17261 4.63625 5.6065 4.90411 5.87436L7.03001 8.00043L4.90402 10.1266C4.63616 10.3945 4.63616 10.8283 4.90402 11.0962C5.0379 11.2301 5.21339 11.2971 5.38887 11.2971C5.56435 11.2971 5.74002 11.2302 5.87372 11.0962L7.99961 8.97013L10.1255 11.0962C10.2594 11.2301 10.4349 11.2971 10.6104 11.2971C10.7858 11.2971 10.9612 11.2302 11.0952 11.0962C11.3631 10.8283 11.3631 10.3945 11.0952 10.1266L8.96922 8.00053L11.0951 5.87445C11.363 5.60659 11.363 5.17261 11.0951 4.90475Z" fill="#E04C4C"/>
</svg>
