<svg width="12" height="12" viewBox="0 0 12 12" fill="none" xmlns="http://www.w3.org/2000/svg">
<path fill-rule="evenodd" clip-rule="evenodd" d="M12 1.33333V10.6667C12 11.0203 11.8595 11.3594 11.6095 11.6095C11.3594 11.8595 11.0203 12 10.6667 12H8.16667C8.07826 12 7.99348 11.9649 7.93096 11.9024C7.86845 11.8399 7.83333 11.7551 7.83333 11.6667V7.66667H9.39333C9.47018 7.66668 9.54467 7.64015 9.60419 7.59155C9.66372 7.54296 9.70463 7.47529 9.72 7.4L9.96 6.2C9.96489 6.17606 9.96446 6.15133 9.95873 6.12757C9.953 6.10381 9.94212 6.0816 9.92685 6.06252C9.91158 6.04343 9.89231 6.02794 9.87039 6.01714C9.84846 6.00633 9.82444 6.00048 9.8 6H7.83333V3.83333C7.83333 3.78913 7.85089 3.74674 7.88215 3.71548C7.9134 3.68423 7.9558 3.66667 8 3.66667H9.66667C9.75507 3.66667 9.83986 3.63155 9.90237 3.56904C9.96488 3.50652 10 3.42174 10 3.33333V2.33333C10 2.24493 9.96488 2.16014 9.90237 2.09763C9.83986 2.03512 9.75507 2 9.66667 2H8C7.46957 2 6.96086 2.21071 6.58579 2.58579C6.21071 2.96086 6 3.46957 6 4V6H5.18C5.0916 6 5.00681 6.03512 4.9443 6.09763C4.88179 6.16014 4.84667 6.24493 4.84667 6.33333V7.33333C4.84667 7.42174 4.88179 7.50652 4.9443 7.56904C5.00681 7.63155 5.0916 7.66667 5.18 7.66667H6V11.6667C6 11.7551 5.96488 11.8399 5.90237 11.9024C5.83986 11.9649 5.75507 12 5.66667 12H1.33333C0.979711 12 0.640573 11.8595 0.390524 11.6095C0.140476 11.3594 0 11.0203 0 10.6667V1.33333C0 0.979711 0.140476 0.640573 0.390524 0.390524C0.640573 0.140476 0.979711 0 1.33333 0H10.6667C11.0203 0 11.3594 0.140476 11.6095 0.390524C11.8595 0.640573 12 0.979711 12 1.33333Z" fill="#475993"/>
</svg>
