<svg width="35" height="35" viewBox="0 0 35 35" fill="none" xmlns="http://www.w3.org/2000/svg">
<path d="M24.7917 4.375H10.2083C6.98687 4.375 4.375 6.98687 4.375 10.2083V24.7917C4.375 28.0131 6.98687 30.625 10.2083 30.625H18.4056V20.4735H14.9888V16.4996H18.4056V13.5756C18.4056 10.1865 20.4779 8.33875 23.5025 8.33875C24.5219 8.33583 25.5398 8.38833 26.5533 8.49188V12.0356H24.4708C22.8229 12.0356 22.5021 12.8144 22.5021 13.9635V16.4938H26.4396L25.9277 20.4677H22.4788V30.625H24.7917C28.0131 30.625 30.625 28.0131 30.625 24.7917V10.2083C30.625 6.98687 28.0131 4.375 24.7917 4.375Z" fill="white"/>
</svg>
