<svg width="12" height="12" viewBox="0 0 12 12" fill="none" xmlns="http://www.w3.org/2000/svg">
<path fill-rule="evenodd" clip-rule="evenodd" d="M12 5.86013C12 8.6268 10.5267 12.0001 6.08667 12.0001C4.48413 12.0108 2.9429 11.3848 1.80162 10.2598C0.660328 9.13475 0.0123329 7.60266 0 6.00013C0.0123329 4.39761 0.660328 2.86552 1.80162 1.74048C2.9429 0.615443 4.48413 -0.0105152 6.08667 0.000133677C7.46712 0.00525251 8.80566 0.474917 9.88667 1.33347C9.92362 1.36365 9.95394 1.40114 9.97574 1.44358C9.99753 1.48603 10.0103 1.53251 10.0133 1.58013C10.0135 1.62836 10.0042 1.67614 9.9859 1.72076C9.9676 1.76537 9.94067 1.80594 9.90667 1.84013C9.47266 2.23693 9.0588 2.65524 8.66667 3.09347C8.61166 3.15402 8.53593 3.19173 8.45445 3.19913C8.37298 3.20654 8.29169 3.18311 8.22667 3.13347C7.61076 2.67765 6.85918 2.44279 6.09333 2.4668C5.14739 2.4668 4.2402 2.84257 3.57132 3.51145C2.90244 4.18033 2.52667 5.08753 2.52667 6.03347C2.52667 6.97941 2.90244 7.8866 3.57132 8.55548C4.2402 9.22436 5.14739 9.60013 6.09333 9.60013C8.09333 9.60013 8.94 8.7468 9.38 7.23347H6.33333C6.24493 7.23347 6.16014 7.19835 6.09763 7.13584C6.03512 7.07332 6 6.98854 6 6.90013V5.13347C6 5.04506 6.03512 4.96028 6.09763 4.89777C6.16014 4.83525 6.24493 4.80013 6.33333 4.80013H11.6667C11.7408 4.79967 11.8124 4.82667 11.8678 4.87591C11.9232 4.92514 11.9584 4.99315 11.9667 5.0668C11.9914 5.3305 12.0025 5.59529 12 5.86013Z" fill="#F34A38"/>
</svg>
