<svg width="20" height="20" viewBox="0 0 20 20" fill="none" xmlns="http://www.w3.org/2000/svg">
<g clip-path="url(#clip0)">
<path d="M12.0832 17.5H8.74984C7.6015 17.5 6.6665 16.565 6.6665 15.4167V13.75C6.6665 13.52 6.85317 13.3333 7.08317 13.3333C7.31317 13.3333 7.49984 13.52 7.49984 13.75V15.4167C7.49984 16.1058 8.06067 16.6667 8.74984 16.6667H12.0832C12.3132 16.6667 12.4998 16.8534 12.4998 17.0834C12.4998 17.3134 12.3132 17.5 12.0832 17.5Z" fill="#303030" stroke="#303030" stroke-width="0.2"/>
<path d="M8.75 9.3H0.416667C0.186667 9.3 0 9.0536 0 8.75C0 8.4464 0.186667 8.2 0.416667 8.2H8.75C8.98 8.2 9.16667 8.4464 9.16667 8.75C9.16667 9.0536 8.98 9.3 8.75 9.3Z" fill="#303030"/>
<path d="M13.3332 20C12.414 20 11.6665 19.2525 11.6665 18.3333V3.33333C11.6665 2.61667 12.1265 1.9825 12.8107 1.75417L17.8106 0.0875C17.969 0.0308333 18.1481 0 18.3331 0C19.2523 0 19.9998 0.7475 19.9998 1.66667V16.6667C19.9998 17.3825 19.5406 18.0175 18.8565 18.245L13.8565 19.9117C13.6957 19.9692 13.5165 20 13.3332 20ZM18.3331 0.833333C18.2465 0.833333 18.1598 0.848333 18.0831 0.875L13.074 2.545C12.7298 2.65917 12.4998 2.97583 12.4998 3.33333V18.3333C12.4998 18.7925 12.874 19.1667 13.3332 19.1667C13.4198 19.1667 13.5065 19.1517 13.5848 19.1242L18.5931 17.455C18.9356 17.34 19.1665 17.0233 19.1665 16.6667V1.66667C19.1665 1.2075 18.7923 0.833333 18.3331 0.833333Z" fill="#303030" stroke="#303030" stroke-width="0.2"/>
<path d="M7.08317 4.16667C6.85317 4.16667 6.6665 3.98 6.6665 3.75V2.08333C6.6665 0.935 7.6015 0 8.74984 0H18.3332C18.5632 0 18.7498 0.186667 18.7498 0.416667C18.7498 0.646667 18.5632 0.833333 18.3332 0.833333H8.74984C8.06067 0.833333 7.49984 1.39417 7.49984 2.08333V3.75C7.49984 3.98 7.31317 4.16667 7.08317 4.16667Z" fill="#303030" stroke="#303030" stroke-width="0.2"/>
<path d="M6.41663 12.5006C6.30996 12.5006 6.2033 12.4598 6.12163 12.3789C5.95913 12.2164 5.95913 11.9522 6.12163 11.7897L9.16079 8.75031L6.12163 5.71173C5.95913 5.54921 5.95913 5.28502 6.12163 5.12251C6.28413 4.96 6.5483 4.96 6.7108 5.12251L10.0441 8.45612C10.2066 8.61864 10.2066 8.88282 10.0441 9.04534L6.7108 12.3789C6.62996 12.4598 6.5233 12.5006 6.41663 12.5006Z" fill="#303030" stroke="#303030" stroke-width="0.2"/>
</g>
<defs>
<clipPath id="clip0">
<rect width="20" height="20" fill="white"/>
</clipPath>
</defs>
</svg>
