<svg width="12" height="12" viewBox="0 0 12 12" fill="none" xmlns="http://www.w3.org/2000/svg">
<g clip-path="url(#clip0)">
<path d="M0.750405 0.816523C-0.192595 1.79602 0.000404805 2.83652 0.000404805 5.99752C0.000404805 8.62252 -0.457595 11.254 1.9394 11.8735C2.6879 12.066 9.3199 12.066 10.0674 11.8725C11.0654 11.615 11.8774 10.8055 11.9884 9.39402C12.0039 9.19702 12.0039 2.80152 11.9879 2.60052C11.8699 1.09702 10.9444 0.230523 9.7249 0.0550232C9.4454 0.0145232 9.3894 0.0025232 7.9554 2.31974e-05C2.8689 0.0025232 1.7539 -0.223977 0.750405 0.816523Z" fill="url(#paint0_linear)"/>
<path d="M5.99854 1.56971C4.18304 1.56971 2.45904 1.40821 1.80054 3.09821C1.52854 3.79621 1.56804 4.70271 1.56804 6.00071C1.56804 7.13971 1.53154 8.21021 1.80054 8.90271C2.45754 10.5937 4.19554 10.4317 5.99754 10.4317C7.73604 10.4317 9.52854 10.6127 10.195 8.90271C10.4675 8.19771 10.4275 7.30471 10.4275 6.00071C10.4275 4.26971 10.523 3.15221 9.68354 2.31321C8.83354 1.46321 7.68404 1.56971 5.99654 1.56971H5.99854ZM5.60154 2.36821C9.38854 2.36221 9.87054 1.94121 9.60454 7.78971C9.51004 9.85821 7.93504 9.63121 5.99904 9.63121C2.46904 9.63121 2.36754 9.53021 2.36754 5.99871C2.36754 2.42621 2.64754 2.37021 5.60154 2.36721V2.36821ZM8.36354 3.10371C8.07004 3.10371 7.83204 3.34171 7.83204 3.63521C7.83204 3.92871 8.07004 4.16671 8.36354 4.16671C8.65704 4.16671 8.89504 3.92871 8.89504 3.63521C8.89504 3.34171 8.65704 3.10371 8.36354 3.10371ZM5.99854 3.72521C4.74204 3.72521 3.72354 4.74421 3.72354 6.00071C3.72354 7.25721 4.74204 8.27571 5.99854 8.27571C7.25504 8.27571 8.27304 7.25721 8.27304 6.00071C8.27304 4.74421 7.25504 3.72521 5.99854 3.72521ZM5.99854 4.52371C7.95104 4.52371 7.95354 7.47771 5.99854 7.47771C4.04654 7.47771 4.04354 4.52371 5.99854 4.52371Z" fill="white"/>
</g>
<defs>
<linearGradient id="paint0_linear" x1="0.773415" y1="11.2336" x2="11.9261" y2="1.58101" gradientUnits="userSpaceOnUse">
<stop stop-color="#FFDD55"/>
<stop offset="0.5" stop-color="#FF543E"/>
<stop offset="1" stop-color="#C837AB"/>
</linearGradient>
<clipPath id="clip0">
<rect width="12" height="12" fill="white"/>
</clipPath>
</defs>
</svg>
