<svg width="62" height="24" viewBox="0 0 62 24" fill="none" xmlns="http://www.w3.org/2000/svg">
<rect width="62" height="24" rx="4" fill="white"/>
<path fill-rule="evenodd" clip-rule="evenodd" d="M47.154 15.7479L47.0448 15.6538C46.7787 15.425 46.732 15.0079 46.9745 14.74L49.8205 11.4646C50.0477 11.1967 50.4619 11.1496 50.728 11.3938L50.8372 11.4883C51.1033 11.7167 51.15 12.1342 50.9076 12.4017L48.0615 15.6771C47.8343 15.945 47.4358 15.9763 47.154 15.7479Z" fill="url(#paint0_linear)"/>
<path opacity="0.4" fill-rule="evenodd" clip-rule="evenodd" d="M49.4379 12.0317L49.3829 11.9683L48.9451 12.4725L48.9918 12.5275C49.7429 13.2833 49.4222 14.0471 49.25 14.315L49.3125 14.2442C49.4143 14.1258 49.5707 13.945 49.7346 13.7483C49.9067 13.4487 50.1492 12.74 49.4379 12.0317Z" fill="url(#paint1_linear)"/>
<path opacity="0.4" fill-rule="evenodd" clip-rule="evenodd" d="M50.376 13.0158L50.4935 12.8821C50.5014 12.8663 50.5167 12.8504 50.5245 12.8346C50.3996 12.9763 50.2667 13.1263 50.1414 13.2754C50.2353 13.1733 50.3135 13.0867 50.376 13.0158Z" fill="url(#paint2_radial)"/>
<path fill-rule="evenodd" clip-rule="evenodd" d="M50.9238 11.5667L48.0769 8.29168C47.8502 8.02335 47.4356 7.97585 47.1699 8.22085L47.0607 8.3146C46.7946 8.54293 46.7478 8.96043 46.9903 9.22793L49.3907 11.9679L49.4454 12.0313C50.1571 12.7479 49.9146 13.4563 49.735 13.7554C49.8757 13.59 50.0164 13.4246 50.1492 13.275C50.2746 13.1254 50.4074 12.9758 50.5324 12.8342C50.6578 12.6925 50.7749 12.5588 50.8531 12.4717C51.1266 12.2042 51.1659 11.8342 50.9234 11.5667H50.9238Z" fill="url(#paint3_linear)"/>
<path fill-rule="evenodd" clip-rule="evenodd" d="M50.7668 15.7479L50.6576 15.6538C50.3915 15.425 50.3448 15.0079 50.5872 14.74L53.4333 11.4646C53.6601 11.1967 54.0747 11.1496 54.3403 11.3938L54.45 11.4883C54.7157 11.7167 54.7628 12.1342 54.5203 12.4017L51.6739 15.6771C51.4471 15.945 51.0486 15.9763 50.7668 15.7479Z" fill="url(#paint4_linear)"/>
<path opacity="0.4" fill-rule="evenodd" clip-rule="evenodd" d="M53.0814 12L53.0268 11.9371L52.5886 12.4412L52.6358 12.4962C53.3864 13.2521 53.0661 14.0158 52.8936 14.2837L52.9565 14.2129C53.0579 14.0946 53.2143 13.9133 53.3786 13.7167C53.5507 13.4175 53.7932 12.7083 53.0814 12Z" fill="url(#paint5_linear)"/>
<path opacity="0.4" fill-rule="evenodd" clip-rule="evenodd" d="M53.9807 13.0158L54.0982 12.8821C54.1057 12.8663 54.1214 12.8504 54.1293 12.8346C54.0043 12.9763 53.8715 13.1263 53.7461 13.2754C53.84 13.1733 53.9261 13.0867 53.9807 13.0158Z" fill="url(#paint6_radial)"/>
<path fill-rule="evenodd" clip-rule="evenodd" d="M54.5282 11.5667L51.6817 8.29168C51.4549 8.02335 51.0407 7.97585 50.7746 8.22085L50.6654 8.3146C50.3993 8.54335 50.3526 8.96085 50.5951 9.22835L52.9955 11.9683L53.0501 12.0317C53.7618 12.7483 53.5193 13.4567 53.3398 13.7558C53.4804 13.5904 53.6211 13.425 53.754 13.2754C53.8789 13.1258 54.0122 12.9763 54.1371 12.8346C54.2621 12.6929 54.3796 12.5592 54.4578 12.4721C54.7313 12.2046 54.7706 11.8346 54.5282 11.5671V11.5667Z" fill="url(#paint7_linear)"/>
<path fill-rule="evenodd" clip-rule="evenodd" d="M19.6368 8.03168C20.3795 8.03168 21.0362 8.19668 21.5837 8.51168C22.139 8.84251 22.5611 9.30709 22.8582 9.89751C23.1557 10.4963 23.3042 11.2046 23.3042 12.0158C23.3042 12.8896 23.1321 13.6533 22.78 14.2754C22.4361 14.9054 21.9358 15.3621 21.2866 15.6538C21.623 15.7638 21.8965 16.0158 22.1233 16.3858L22.5143 16.9763C22.5925 17.1104 22.6393 17.2363 22.6393 17.37C22.6393 17.5354 22.5772 17.6771 22.444 17.7796C22.3111 17.8821 22.1543 17.945 21.9826 17.945C21.8497 17.945 21.7244 17.9133 21.6073 17.8504C21.4976 17.7875 21.3962 17.6929 21.3176 17.575L20.6766 16.5042C20.5748 16.3308 20.442 16.2046 20.2777 16.1258C20.1135 16.0471 19.9024 16 19.6364 16C18.8783 16 18.2291 15.8346 17.6737 15.5196C17.1188 15.1892 16.6964 14.7246 16.3993 14.1338C16.1022 13.5275 15.9536 12.8188 15.9536 12.0158C15.9536 11.2046 16.11 10.5038 16.3993 9.89751C16.6964 9.29918 17.1263 8.84251 17.6737 8.51168C18.2291 8.18126 18.8779 8.03168 19.6372 8.03168H19.6368ZM38.3651 8.03918C38.5525 8.03918 38.7011 8.11834 38.8339 8.28334L41.0783 11.0867L43.3144 8.28334C43.4468 8.12584 43.6115 8.04709 43.799 8.04709C43.9633 8.04709 44.1118 8.11043 44.2446 8.24418C44.3779 8.37793 44.4404 8.51959 44.4404 8.70876C44.4404 8.85043 44.3857 9.00001 44.2761 9.13376L41.7817 12.1967V15.26C41.7817 15.4883 41.7193 15.6613 41.586 15.7954C41.4532 15.9288 41.2889 15.9842 41.0853 15.9842C40.8743 15.9842 40.6947 15.9213 40.5619 15.7954C40.4286 15.6692 40.3662 15.4963 40.3662 15.26V12.1967L37.8875 9.12584C37.7779 8.99251 37.7233 8.85043 37.7233 8.70084C37.7233 8.52751 37.7857 8.37001 37.9186 8.23626C38.0518 8.10251 38.2082 8.03918 38.3642 8.03918H38.3651ZM28.2147 8.10251C29.0435 8.10251 29.6849 8.30709 30.1463 8.73209C30.6077 9.14168 30.8423 9.73209 30.8423 10.4804C30.8423 11.2283 30.6077 11.8188 30.1463 12.2363C29.6849 12.6613 29.0435 12.8663 28.2147 12.8663H26.2521V15.2442C26.2521 15.4725 26.1896 15.6458 26.0568 15.7717C25.9235 15.9054 25.7518 15.9683 25.5325 15.9683C25.3215 15.9608 25.1419 15.8975 25.0244 15.7642C24.8915 15.63 24.8291 15.4567 24.8291 15.2363V8.77168C24.8291 8.55918 24.8911 8.39376 25.0165 8.27584C25.1419 8.16543 25.3062 8.10251 25.5172 8.10251H28.2147ZM13.7874 8.03918C13.9984 8.03918 14.1863 8.10251 14.3113 8.23626C14.4445 8.37001 14.507 8.53543 14.507 8.74793V15.2363C14.507 15.4488 14.4445 15.63 14.3113 15.7638C14.1784 15.8975 14.0063 15.9608 13.7874 15.9608C13.5842 15.9608 13.4121 15.8975 13.2793 15.7638C13.1464 15.63 13.0835 15.4567 13.0835 15.2363V8.74793C13.0835 8.53543 13.1464 8.37001 13.2793 8.23626C13.4121 8.10251 13.5764 8.03918 13.7874 8.03918ZM34.494 8.03168C34.6504 8.03168 34.7911 8.07084 34.9244 8.14168C35.0568 8.22084 35.1586 8.33084 35.2289 8.48043L38.2711 15.0392C38.3022 15.1417 38.3257 15.2283 38.3257 15.3308C38.3257 15.4963 38.2554 15.6379 38.1226 15.7642C37.9893 15.8742 37.8329 15.9371 37.6533 15.9371C37.5437 15.9371 37.4266 15.9054 37.3248 15.8425C37.223 15.7796 37.1369 15.6771 37.0823 15.5508L36.4177 14.0708H32.5703L31.9057 15.5513C31.8433 15.685 31.7651 15.7796 31.6633 15.8425C31.5615 15.9054 31.4522 15.9371 31.3273 15.9371C31.163 15.9371 30.9987 15.8742 30.8659 15.7638C30.7252 15.6538 30.6623 15.5038 30.6623 15.3304C30.6623 15.2363 30.6859 15.1338 30.7248 15.0392L33.7591 8.48043C33.8212 8.33876 33.9234 8.22043 34.0641 8.14168C34.1969 8.06293 34.3372 8.03168 34.494 8.03168ZM7.71167 8.04709C7.92271 8.04709 8.11016 8.11043 8.23554 8.24418C8.36836 8.37793 8.43085 8.54334 8.43085 8.75584V14.7321H11.5041C11.9419 14.7321 12.1686 14.9292 12.1686 15.315C12.1686 15.7008 11.9419 15.8975 11.5041 15.8975H7.67236C7.46133 15.8975 7.29705 15.835 7.17995 15.7167C7.0703 15.6063 7.00781 15.4408 7.00781 15.2363V8.75584C7.00781 8.54334 7.0703 8.37793 7.20312 8.24418C7.33636 8.11043 7.50064 8.04709 7.71167 8.04709ZM19.6206 9.15001C18.9015 9.15001 18.3462 9.39418 17.9477 9.88251C17.5488 10.3783 17.3456 11.0713 17.3456 12.0004C17.3456 12.9296 17.5484 13.6225 17.9477 14.1183C18.3462 14.6146 18.9093 14.8588 19.6211 14.8588C20.3328 14.8588 20.8877 14.6146 21.2866 14.1183C21.6855 13.6225 21.8886 12.9142 21.8886 12.0004C21.8886 11.0713 21.6855 10.3783 21.2866 9.88251C20.8877 9.38626 20.3398 9.15001 19.6206 9.15001ZM34.494 9.69334L33.0474 12.9688H35.9485L34.494 9.69334ZM28.0347 9.21251H26.2521V11.7717L28.0351 11.7796C29.0046 11.7796 29.4975 11.3463 29.4975 10.4963C29.4975 9.64584 29.0046 9.21293 28.0351 9.21293L28.0347 9.21251Z" fill="#5294AB"/>
<defs>
<linearGradient id="paint0_linear" x1="47.3384" y1="14.6769" x2="50.7076" y2="12.7477" gradientUnits="userSpaceOnUse">
<stop stop-color="#1FADC3"/>
<stop offset="0.7072" stop-color="#5294AB"/>
</linearGradient>
<linearGradient id="paint1_linear" x1="49.4108" y1="12.862" x2="49.7582" y2="12.5739" gradientUnits="userSpaceOnUse">
<stop stop-color="#5294AB"/>
<stop offset="1" stop-color="#5294AB"/>
</linearGradient>
<radialGradient id="paint2_radial" cx="0" cy="0" r="1" gradientUnits="userSpaceOnUse" gradientTransform="translate(48.8074 12.8164) scale(1.90664 1.91935)">
<stop offset="0.4185" stop-color="#1FADC3"/>
<stop offset="1" stop-color="#1FADC3"/>
</radialGradient>
<linearGradient id="paint3_linear" x1="47.4892" y1="9.43677" x2="50.5267" y2="11.281" gradientUnits="userSpaceOnUse">
<stop stop-color="#5294AB"/>
</linearGradient>
<linearGradient id="paint4_linear" x1="50.9483" y1="14.6789" x2="54.3175" y2="12.7498" gradientUnits="userSpaceOnUse">
<stop stop-color="#5294AB"/>
<stop offset="0.7072" stop-color="#5294AB"/>
</linearGradient>
<linearGradient id="paint5_linear" x1="53.0546" y1="12.8307" x2="53.4019" y2="12.5425" gradientUnits="userSpaceOnUse">
<stop stop-color="#5294AB"/>
<stop offset="1" stop-color="#5294AB"/>
</linearGradient>
<radialGradient id="paint6_radial" cx="0" cy="0" r="1" gradientUnits="userSpaceOnUse" gradientTransform="translate(52.4154 12.8164) scale(1.90664 1.91935)">
<stop offset="0.4185" stop-color="#5294AB"/>
<stop offset="1" stop-color="#5294AB"/>
</radialGradient>
<linearGradient id="paint7_linear" x1="51.0952" y1="9.43829" x2="54.1329" y2="11.2825" gradientUnits="userSpaceOnUse">
<stop stop-color="#5294AB"/>
</linearGradient>
</defs>
</svg>
