<svg width="36" height="24" viewBox="0 0 36 24" fill="none" xmlns="http://www.w3.org/2000/svg">
<rect width="36" height="24" rx="4" fill="white"/>
<path fill-rule="evenodd" clip-rule="evenodd" d="M16.0897 11.8526C16.0897 10.0156 16.9384 8.38017 18.2598 7.32178C17.2854 6.54133 16.0545 6.0741 14.7149 6.0741C11.5587 6.0741 9 8.66122 9 11.8526C9 15.0439 11.5587 17.631 14.7149 17.631C16.0545 17.631 17.2854 17.1638 18.2598 16.3833C16.9384 15.3249 16.0897 13.6895 16.0897 11.8526Z" fill="#5294AB"/>
<path fill-rule="evenodd" clip-rule="evenodd" d="M16.0897 11.8525C16.0897 13.6895 16.9384 15.3249 18.2598 16.3833C19.5812 15.3249 20.4299 13.6895 20.4299 11.8525C20.4299 10.0156 19.5812 8.38017 18.2598 7.32178C16.9384 8.38017 16.0897 10.0156 16.0897 11.8525Z" fill="#44CDE2"/>
<path fill-rule="evenodd" clip-rule="evenodd" d="M21.8046 6.0741C20.465 6.0741 19.2341 6.54133 18.2598 7.32178C19.5811 8.38025 20.4298 10.0156 20.4298 11.8526C20.4298 13.6895 19.5811 15.3249 18.2598 16.3833C19.2341 17.1638 20.465 17.631 21.8046 17.631C24.9608 17.631 27.5195 15.0439 27.5195 11.8526C27.5195 8.66122 24.9608 6.0741 21.8046 6.0741Z" fill="#1FADC3"/>
</svg>
