<svg width="40" height="40" viewBox="0 0 40 40" fill="none" xmlns="http://www.w3.org/2000/svg">
<path d="M37.5 28.3C37.5 30.0672 36.0075 31.5 34.1667 31.5H5.83333C3.9925 31.5 2.5 30.0672 2.5 28.3V10.7C2.5 8.9328 3.9925 7.5 5.83333 7.5H34.1667C36.0075 7.5 37.5 8.9328 37.5 10.7V28.3Z" fill="#3F51B5"/>
<path d="M25.0001 11.6666C22.7899 11.6666 20.6703 12.5446 19.1075 14.1074C17.5447 15.6702 16.6667 17.7898 16.6667 20C16.6667 22.2101 17.5447 24.3297 19.1075 25.8925C20.6703 27.4553 22.7899 28.3333 25.0001 28.3333C27.2102 28.3333 29.3298 27.4553 30.8926 25.8925C32.4554 24.3297 33.3334 22.2101 33.3334 20C33.3334 17.7898 32.4554 15.6702 30.8926 14.1074C29.3298 12.5446 27.2102 11.6666 25.0001 11.6666Z" fill="#FFC107"/>
<path d="M18.3449 25C17.9583 24.4858 17.6258 23.93 17.3649 23.3333H21.8024C22.0341 22.8033 22.2158 22.2466 22.3333 21.6666H16.8349C16.7249 21.1283 16.6666 20.5716 16.6666 20H22.4999C22.4999 19.4283 22.4416 18.8716 22.3324 18.3333H16.8341C16.9524 17.7533 17.1333 17.1966 17.3649 16.6666H21.8024C21.5416 16.07 21.2099 15.5141 20.8224 15H18.3449C18.7091 14.5166 19.1199 14.065 19.5791 13.6708C18.1224 12.4241 16.2341 11.6666 14.1666 11.6666C9.56409 11.6666 5.83325 15.3975 5.83325 20C5.83325 24.6025 9.56409 28.3333 14.1666 28.3333C16.8908 28.3333 19.3016 27.0208 20.8216 25H18.3449Z" fill="#FF3D00"/>
</svg>
