<svg width="44" height="40" viewBox="0 0 44 40" fill="none" xmlns="http://www.w3.org/2000/svg">
<path d="M37.7026 28.3C37.7026 30.0672 36.2101 31.5 34.3693 31.5H6.03597C4.19514 31.5 2.70264 30.0672 2.70264 28.3V10.7C2.70264 8.9328 4.19514 7.5 6.03597 7.5H34.3693C36.2101 7.5 37.7026 8.9328 37.7026 10.7V28.3Z" fill="#1565C0"/>
<path d="M12.6812 15.8334L10.3154 22.36C10.3154 22.36 9.71449 19.5992 9.65503 19.2525C8.30819 16.41 6.3208 16.5684 6.3208 16.5684L8.66314 25V24.9984H11.5109L15.4487 15.8334H12.6812ZM14.9361 25H17.5226L19.0866 15.8334H16.4676L14.9361 25ZM33.2415 15.8334H30.5199L26.2767 25H28.846L29.3758 23.6909H32.6154L32.8911 25H35.2451L33.2415 15.8334ZM30.0929 21.94L31.501 18.4759L32.2379 21.94H30.0929ZM22.7559 18.505C22.7559 18 23.2046 17.6242 24.4911 17.6242C25.3271 17.6242 26.2848 18.1859 26.2848 18.1859L26.7046 16.2617C26.7046 16.2617 25.4812 15.8325 24.2803 15.8325C21.5604 15.8325 20.1577 17.0359 20.1577 18.5592C20.1577 21.3142 23.7424 20.9367 23.7424 22.3517C23.7424 22.5942 23.5343 23.155 22.0415 23.155C20.5442 23.155 19.5559 22.6475 19.5559 22.6475L19.11 24.4942C19.11 24.4942 20.0676 24.9992 21.9181 24.9992C23.7731 24.9992 26.346 23.7159 26.346 21.8725C26.346 19.655 22.7559 19.495 22.7559 18.505Z" fill="white"/>
<path d="M10.0017 20.7876L9.13147 16.8309C9.13147 16.8309 8.73778 15.9734 7.71436 15.9734C6.69093 15.9734 3.71436 15.9734 3.71436 15.9734C3.71436 15.9734 8.81436 17.3667 10.0017 20.7876Z" fill="#FFC107"/>
</svg>
