<svg width="62" height="24" viewBox="0 0 62 24" fill="none" xmlns="http://www.w3.org/2000/svg">
<rect width="62" height="24" rx="4" fill="white"/>
<path fill-rule="evenodd" clip-rule="evenodd" d="M47.154 15.7478L47.0448 15.6536C46.7787 15.4249 46.732 15.0078 46.9745 14.7399L49.8205 11.4645C50.0477 11.1966 50.4619 11.1495 50.728 11.3936L50.8372 11.4882C51.1033 11.7166 51.15 12.1341 50.9076 12.4016L48.0615 15.677C47.8343 15.9449 47.4358 15.9761 47.154 15.7478Z" fill="url(#paint0_linear)"/>
<path opacity="0.4" fill-rule="evenodd" clip-rule="evenodd" d="M49.4379 12.0316L49.3829 11.9683L48.9451 12.4724L48.9918 12.5274C49.7429 13.2833 49.4222 14.047 49.25 14.3149L49.3125 14.2441C49.4143 14.1258 49.5707 13.9449 49.7346 13.7483C49.9067 13.4487 50.1492 12.7399 49.4379 12.0316Z" fill="#76A62D"/>
<path opacity="0.4" fill-rule="evenodd" clip-rule="evenodd" d="M50.376 13.0157L50.4935 12.882C50.5014 12.8661 50.5167 12.8503 50.5245 12.8345C50.3996 12.9761 50.2667 13.1261 50.1414 13.2753C50.2353 13.1732 50.3135 13.0866 50.376 13.0157Z" fill="#76A62D"/>
<path fill-rule="evenodd" clip-rule="evenodd" d="M50.9238 11.5666L48.0769 8.29162C47.8502 8.02328 47.4356 7.97578 47.1699 8.22078L47.0607 8.31453C46.7946 8.54287 46.7478 8.96037 46.9903 9.22787L49.3907 11.9679L49.4454 12.0312C50.1571 12.7479 49.9146 13.4562 49.735 13.7554C49.8757 13.59 50.0164 13.4245 50.1492 13.275C50.2746 13.1254 50.4074 12.9758 50.5324 12.8341C50.6578 12.6925 50.7749 12.5587 50.8531 12.4716C51.1266 12.2041 51.1659 11.8341 50.9234 11.5666H50.9238Z" fill="#76A62D"/>
<path fill-rule="evenodd" clip-rule="evenodd" d="M50.7668 15.7478L50.6576 15.6536C50.3915 15.4249 50.3448 15.0078 50.5872 14.7399L53.4333 11.4645C53.6601 11.1966 54.0747 11.1495 54.3403 11.3936L54.45 11.4882C54.7157 11.7166 54.7628 12.1341 54.5203 12.4016L51.6739 15.677C51.4471 15.9449 51.0486 15.9761 50.7668 15.7478Z" fill="#76A62D"/>
<path opacity="0.4" fill-rule="evenodd" clip-rule="evenodd" d="M53.0814 11.9999L53.0268 11.937L52.5886 12.4412L52.6358 12.4962C53.3864 13.252 53.0661 14.0158 52.8936 14.2837L52.9565 14.2128C53.0579 14.0945 53.2143 13.9133 53.3786 13.7166C53.5507 13.4174 53.7932 12.7083 53.0814 11.9999Z" fill="#76A62D"/>
<path opacity="0.4" fill-rule="evenodd" clip-rule="evenodd" d="M53.9807 13.0157L54.0982 12.882C54.1057 12.8661 54.1214 12.8503 54.1293 12.8345C54.0043 12.9761 53.8715 13.1261 53.7461 13.2753C53.84 13.1732 53.9261 13.0866 53.9807 13.0157Z" fill="#76A62D"/>
<path fill-rule="evenodd" clip-rule="evenodd" d="M54.5282 11.5666L51.6817 8.29162C51.4549 8.02328 51.0407 7.97578 50.7746 8.22078L50.6654 8.31453C50.3993 8.54328 50.3526 8.96078 50.5951 9.22828L52.9955 11.9683L53.0501 12.0316C53.7618 12.7483 53.5193 13.4566 53.3398 13.7558C53.4804 13.5904 53.6211 13.425 53.754 13.2754C53.8789 13.1258 54.0122 12.9762 54.1371 12.8345C54.2621 12.6929 54.3796 12.5591 54.4578 12.472C54.7313 12.2045 54.7706 11.8345 54.5282 11.567V11.5666Z" fill="#76A62D"/>
<path fill-rule="evenodd" clip-rule="evenodd" d="M19.6368 8.03162C20.3795 8.03162 21.0362 8.19662 21.5837 8.51162C22.139 8.84245 22.5611 9.30703 22.8582 9.89745C23.1557 10.4962 23.3042 11.2045 23.3042 12.0158C23.3042 12.8895 23.1321 13.6533 22.78 14.2754C22.4361 14.9054 21.9358 15.362 21.2866 15.6537C21.623 15.7637 21.8965 16.0158 22.1233 16.3858L22.5143 16.9762C22.5925 17.1104 22.6393 17.2362 22.6393 17.37C22.6393 17.5354 22.5772 17.677 22.444 17.7795C22.3111 17.882 22.1543 17.945 21.9826 17.945C21.8497 17.945 21.7244 17.9133 21.6073 17.8504C21.4976 17.7874 21.3962 17.6929 21.3176 17.5749L20.6766 16.5041C20.5748 16.3308 20.442 16.2045 20.2777 16.1258C20.1135 16.047 19.9024 15.9999 19.6364 15.9999C18.8783 15.9999 18.2291 15.8345 17.6737 15.5195C17.1188 15.1891 16.6964 14.7245 16.3993 14.1337C16.1022 13.5274 15.9536 12.8187 15.9536 12.0158C15.9536 11.2045 16.11 10.5037 16.3993 9.89745C16.6964 9.29912 17.1263 8.84245 17.6737 8.51162C18.2291 8.1812 18.8779 8.03162 19.6372 8.03162H19.6368ZM38.3651 8.03912C38.5525 8.03912 38.7011 8.11828 38.8339 8.28328L41.0783 11.0866L43.3144 8.28328C43.4468 8.12578 43.6115 8.04703 43.799 8.04703C43.9633 8.04703 44.1118 8.11037 44.2446 8.24412C44.3779 8.37787 44.4404 8.51953 44.4404 8.7087C44.4404 8.85037 44.3857 8.99995 44.2761 9.1337L41.7817 12.1966V15.2599C41.7817 15.4883 41.7193 15.6612 41.586 15.7954C41.4532 15.9287 41.2889 15.9841 41.0853 15.9841C40.8743 15.9841 40.6947 15.9212 40.5619 15.7954C40.4286 15.6691 40.3662 15.4962 40.3662 15.2599V12.1966L37.8875 9.12578C37.7779 8.99245 37.7233 8.85037 37.7233 8.70078C37.7233 8.52745 37.7857 8.36995 37.9186 8.2362C38.0518 8.10245 38.2082 8.03912 38.3642 8.03912H38.3651ZM28.2147 8.10245C29.0435 8.10245 29.6849 8.30703 30.1463 8.73203C30.6077 9.14162 30.8423 9.73203 30.8423 10.4804C30.8423 11.2283 30.6077 11.8187 30.1463 12.2362C29.6849 12.6612 29.0435 12.8662 28.2147 12.8662H26.2521V15.2441C26.2521 15.4724 26.1896 15.6458 26.0568 15.7716C25.9235 15.9054 25.7518 15.9683 25.5325 15.9683C25.3215 15.9608 25.1419 15.8974 25.0244 15.7641C24.8915 15.63 24.8291 15.4566 24.8291 15.2362V8.77162C24.8291 8.55912 24.8911 8.3937 25.0165 8.27578C25.1419 8.16537 25.3062 8.10245 25.5172 8.10245H28.2147ZM13.7874 8.03912C13.9984 8.03912 14.1863 8.10245 14.3113 8.2362C14.4445 8.36995 14.507 8.53537 14.507 8.74787V15.2362C14.507 15.4487 14.4445 15.6299 14.3113 15.7637C14.1784 15.8974 14.0063 15.9608 13.7874 15.9608C13.5842 15.9608 13.4121 15.8974 13.2793 15.7637C13.1464 15.6299 13.0835 15.4566 13.0835 15.2362V8.74787C13.0835 8.53537 13.1464 8.36995 13.2793 8.2362C13.4121 8.10245 13.5764 8.03912 13.7874 8.03912ZM34.494 8.03162C34.6504 8.03162 34.7911 8.07078 34.9244 8.14162C35.0568 8.22078 35.1586 8.33078 35.2289 8.48037L38.2711 15.0391C38.3022 15.1416 38.3257 15.2283 38.3257 15.3308C38.3257 15.4962 38.2554 15.6379 38.1226 15.7641C37.9893 15.8741 37.8329 15.937 37.6533 15.937C37.5437 15.937 37.4266 15.9054 37.3248 15.8425C37.223 15.7795 37.1369 15.677 37.0823 15.5508L36.4177 14.0708H32.5703L31.9057 15.5512C31.8433 15.6849 31.7651 15.7795 31.6633 15.8425C31.5615 15.9054 31.4522 15.937 31.3273 15.937C31.163 15.937 30.9987 15.8741 30.8659 15.7637C30.7252 15.6537 30.6623 15.5037 30.6623 15.3304C30.6623 15.2362 30.6859 15.1337 30.7248 15.0391L33.7591 8.48037C33.8212 8.3387 33.9234 8.22037 34.0641 8.14162C34.1969 8.06287 34.3372 8.03162 34.494 8.03162ZM7.71167 8.04703C7.92271 8.04703 8.11016 8.11037 8.23554 8.24412C8.36836 8.37787 8.43085 8.54328 8.43085 8.75578V14.732H11.5041C11.9419 14.732 12.1686 14.9291 12.1686 15.3149C12.1686 15.7008 11.9419 15.8974 11.5041 15.8974H7.67236C7.46133 15.8974 7.29705 15.8349 7.17995 15.7166C7.0703 15.6062 7.00781 15.4408 7.00781 15.2362V8.75578C7.00781 8.54328 7.0703 8.37787 7.20312 8.24412C7.33636 8.11037 7.50064 8.04703 7.71167 8.04703ZM19.6206 9.14995C18.9015 9.14995 18.3462 9.39412 17.9477 9.88245C17.5488 10.3783 17.3456 11.0712 17.3456 12.0004C17.3456 12.9295 17.5484 13.6224 17.9477 14.1183C18.3462 14.6145 18.9093 14.8587 19.6211 14.8587C20.3328 14.8587 20.8877 14.6145 21.2866 14.1183C21.6855 13.6224 21.8886 12.9141 21.8886 12.0004C21.8886 11.0712 21.6855 10.3783 21.2866 9.88245C20.8877 9.3862 20.3398 9.14995 19.6206 9.14995ZM34.494 9.69328L33.0474 12.9687H35.9485L34.494 9.69328ZM28.0347 9.21245H26.2521V11.7716L28.0351 11.7795C29.0046 11.7795 29.4975 11.3462 29.4975 10.4962C29.4975 9.64578 29.0046 9.21287 28.0351 9.21287L28.0347 9.21245Z" fill="#76A62D"/>
<defs>
<linearGradient id="paint0_linear" x1="47.3384" y1="14.6768" x2="50.7076" y2="12.7476" gradientUnits="userSpaceOnUse">
<stop stop-color="#76A62D"/>
</linearGradient>
</defs>
</svg>
