<svg width="16" height="16" viewBox="0 0 16 16" fill="none" xmlns="http://www.w3.org/2000/svg">
<path d="M8 0C3.5888 0 0 3.5888 0 8C0 12.4112 3.5888 16 8 16C12.4112 16 16 12.4112 16 8C16 3.5888 12.4111 0 8 0ZM8 14.6286C4.34509 14.6286 1.37144 11.6549 1.37144 8C1.37144 4.34509 4.34509 1.37144 8 1.37144C11.6549 1.37144 14.6286 4.34509 14.6286 8C14.6286 11.6549 11.6548 14.6286 8 14.6286Z" fill="#4CE0A2"/>
<path d="M8.22159 3C8.01919 3 7.85511 3.16408 7.85511 3.36648V4.03835C7.60857 4.06963 6.22869 4.32886 6.22869 5.99432C6.22869 8.42414 8.74432 7.70561 8.74432 9.3267C8.74432 10.1383 8.21913 10.1577 8.11222 10.1577C8.03768 10.1577 7.64595 10.188 7.4658 9.64658C7.34592 9.2863 7.0672 8.96733 6.6875 8.96733C6.3078 8.96733 5.98864 9.27895 6.0625 9.65139C6.3516 11.1091 7.5535 11.241 7.75284 11.2685V11.8714C7.75284 12.0727 7.91596 12.2358 8.11719 12.2358C8.31841 12.2358 8.48153 12.0727 8.48153 11.8714V11.2685C8.72735 11.2379 10.1179 11.0099 10.1179 9.31676C10.1179 6.98513 7.603 7.43124 7.60227 6.00142C7.60227 5.18178 8.05311 5.15625 8.15057 5.15625C8.27648 5.15625 8.52518 5.23429 8.66027 5.63242C8.78226 5.99198 9.06065 6.31108 9.44034 6.31108C9.82004 6.31108 10.1393 5.99901 10.0633 5.62701C9.7972 4.32528 8.79026 4.09666 8.58807 4.05824V3.36648C8.58807 3.16408 8.42399 3 8.22159 3Z" fill="#4CE0A2"/>
</svg>
