<svg width="18" height="18" viewBox="0 0 18 18" fill="none" xmlns="http://www.w3.org/2000/svg">
<g clip-path="url(#clip0)">
<path d="M9.74991 13.5C9.74991 13.9142 9.41414 14.25 8.99995 14.25C8.58577 14.25 8.25 13.9142 8.25 13.5C8.25 13.0858 8.58577 12.7501 8.99995 12.7501C9.41414 12.7501 9.74991 13.0858 9.74991 13.5Z" fill="#303030" stroke="white" stroke-width="0.2"/>
<path d="M9 18C4.0372 18 0 13.9628 0 9C0 4.0372 4.0372 0 9 0C13.9628 0 18 4.0372 18 9C18 13.9628 13.9628 18 9 18ZM9 1.125C4.65752 1.125 1.125 4.65752 1.125 9C1.125 13.3425 4.65752 16.875 9 16.875C13.3425 16.875 16.875 13.3425 16.875 9C16.875 4.65752 13.3425 1.125 9 1.125Z" fill="#303030" stroke="white" stroke-width="0.2"/>
<path d="M9.00005 11.0625C8.68954 11.0625 8.43755 10.8105 8.43755 10.5V9.74252C8.43755 9.02855 8.89059 8.38873 9.56406 8.15102C10.4603 7.8353 11.0626 6.88045 11.0626 6.18748C11.0626 5.04971 10.1378 4.12494 9.00005 4.12494C7.86227 4.12494 6.9375 5.04971 6.9375 6.18748C6.9375 6.49799 6.6855 6.74998 6.375 6.74998C6.0645 6.74998 5.8125 6.49799 5.8125 6.18748C5.8125 4.43022 7.2421 2.99994 9.00005 2.99994C10.758 2.99994 12.1876 4.43022 12.1876 6.18748C12.1876 7.43855 11.1998 8.7668 9.93828 9.2123C9.71333 9.29099 9.56255 9.50467 9.56255 9.74321V10.5C9.56255 10.8105 9.31055 11.0625 9.00005 11.0625Z" fill="#303030" stroke="white" stroke-width="0.2"/>
</g>
<defs>
<clipPath id="clip0">
<rect width="18" height="18" fill="white"/>
</clipPath>
</defs>
</svg>
