<svg width="19" height="17" viewBox="0 0 19 17" fill="none" xmlns="http://www.w3.org/2000/svg">
<path d="M2.03571 0C0.919464 0 0 0.919464 0 2.03571V12.4405C0 13.5567 0.919464 14.4762 2.03571 14.4762H2.58529C2.88358 15.516 3.84536 16.2857 4.97619 16.2857C6.10702 16.2857 7.0688 15.516 7.36709 14.4762H11.0833H11.4067C11.705 15.516 12.6668 16.2857 13.7976 16.2857C14.9285 16.2857 15.8902 15.516 16.1885 14.4762H16.9643C18.0805 14.4762 19 13.5567 19 12.4405V9.56185C19 9.27621 18.9397 8.99564 18.8251 8.73661L18.8242 8.73572L17.49 5.7334C17.1642 4.99984 16.4326 4.52381 15.6301 4.52381H11.3643L7.0393 0.1988C6.91206 0.0715435 6.73948 3.462e-05 6.55952 0H2.03571ZM2.03571 1.35714H5.88095L6 1.47619C6 1.60751 5.9691 1.48469 6 1.50651L10.4048 5.88095V13.119H7.36709C7.0688 12.0793 6.10702 11.3095 4.97619 11.3095C3.84536 11.3095 2.88358 12.0793 2.58529 13.119H2.03571C1.65277 13.119 1.35714 12.8234 1.35714 12.4405V2.03571C1.35714 1.65277 1.65277 1.35714 2.03571 1.35714ZM5.88095 1.35714L10.4048 5.88095L6 1.50651C5.88095 1.35175 6.065 1.52216 5.97614 1.46472L5.88095 1.35714ZM11.7619 5.88095H15.6301C15.9004 5.88095 16.14 6.03705 16.2495 6.28385L17.0756 8.14286H11.7619V5.88095ZM11.7619 9.5H17.6367C17.6386 9.5206 17.6429 9.54129 17.6429 9.56185V12.4405C17.6429 12.8234 17.3472 13.119 16.9643 13.119H16.1885C15.8902 12.0793 14.9285 11.3095 13.7976 11.3095C12.9592 11.3095 12.2135 11.7335 11.7619 12.376V9.5ZM4.97619 12.6667C5.6079 12.6667 6.10714 13.1659 6.10714 13.7976C6.10714 14.4293 5.6079 14.9286 4.97619 14.9286C4.34448 14.9286 3.84524 14.4293 3.84524 13.7976C3.84524 13.1659 4.34448 12.6667 4.97619 12.6667ZM13.7976 12.6667C14.4293 12.6667 14.9286 13.1659 14.9286 13.7976C14.9286 14.4293 14.4293 14.9286 13.7976 14.9286C13.1659 14.9286 12.6667 14.4293 12.6667 13.7976C12.6667 13.1659 13.1659 12.6667 13.7976 12.6667Z" fill="#2196F3"/>
</svg>
