<svg width="16" height="16" viewBox="0 0 16 16" fill="none" xmlns="http://www.w3.org/2000/svg">
<path d="M8 12C5.794 12 4 10.206 4 8C4 5.794 5.794 4 8 4C10.206 4 12 5.794 12 8C12 10.206 10.206 12 8 12ZM8 5C6.346 5 5 6.346 5 8C5 9.654 6.346 11 8 11C9.654 11 11 9.654 11 8C11 6.346 9.654 5 8 5Z" fill="#FFDE33"/>
<path d="M2.53335 16C2.26002 16 2.03669 15.78 2.03336 15.5053L2.00003 12.5053C1.99869 12.372 2.05069 12.2433 2.14469 12.148C2.23869 12.0527 2.36669 12 2.50002 12H5.5C5.776 12 6 12.224 6 12.5C6 12.776 5.776 13 5.5 13H3.00602L3.03335 15.4947C3.03669 15.7707 2.81535 15.9973 2.53869 16C2.53736 16 2.53535 16 2.53335 16Z" fill="#FFDE33"/>
<path d="M13.5 4H10.5C10.224 4 10 3.776 10 3.5C10 3.224 10.224 3 10.5 3H13V0.5C13 0.224 13.224 0 13.5 0C13.776 0 14 0.224 14 0.5V3.5C14 3.776 13.776 4 13.5 4Z" fill="#FFDE33"/>
<path d="M0.799441 10C0.590156 10 0.396471 9.86937 0.332775 9.66625C0.112442 8.96187 0 8.23312 0 7.5C0 3.36437 3.49869 0 7.79942 0C10.1971 0 12.4193 1.03312 13.8953 2.835C14.0624 3.03812 14.0253 3.33313 13.8141 3.49313C13.6015 3.65375 13.2954 3.61813 13.1297 3.415C11.8402 1.84063 9.89746 0.9375 7.79942 0.9375C4.0362 0.9375 0.974927 3.88125 0.974927 7.5C0.974927 8.14125 1.07307 8.77875 1.26611 9.39625C1.3441 9.64375 1.19851 9.90563 0.94048 9.98063C0.893683 9.99375 0.846237 10 0.799441 10Z" fill="#FFDE33"/>
<path d="M8.20058 16C5.80291 16 3.58072 14.9669 2.10468 13.1652C1.93765 12.962 1.97469 12.6671 2.18593 12.5071C2.39781 12.3477 2.70524 12.3821 2.87033 12.5852C4.15983 14.1595 6.10254 15.0626 8.20058 15.0626C11.9638 15.0626 15.0251 12.119 15.0251 8.50043C15.0251 7.85922 14.9269 7.22175 14.7339 6.60429C14.6559 6.3568 14.8015 6.09494 15.0595 6.01995C15.3176 5.94557 15.5892 6.08557 15.6672 6.33368C15.8876 7.03864 16 7.76735 16 8.50043C16 12.6358 12.5013 16 8.20058 16Z" fill="#FFDE33"/>
<path d="M8.53254 9.53327C8.42254 9.53327 8.31254 9.49727 8.21988 9.42327L7.38655 8.75661C7.26788 8.66194 7.19922 8.51861 7.19922 8.36661V6.69995C7.19922 6.42395 7.42322 6.19995 7.69921 6.19995C7.97521 6.19995 8.19921 6.42395 8.19921 6.69995V8.12661L8.84521 8.64327C9.06054 8.81594 9.09587 9.12994 8.92321 9.34594C8.82454 9.46927 8.67921 9.53327 8.53254 9.53327Z" fill="#FFDE33"/>
</svg>
