<svg width="36" height="24" viewBox="0 0 36 24" fill="none" xmlns="http://www.w3.org/2000/svg">
<rect width="36" height="24" rx="4" fill="white"/>
<path fill-rule="evenodd" clip-rule="evenodd" d="M23.361 8.33436L23.0832 9.98113C22.2502 9.51036 20.3544 9.39897 20.3542 10.2661C20.3542 10.6105 20.7831 10.8474 21.3001 11.1329C22.0842 11.566 23.0708 12.1108 23.0708 13.3124C23.0708 15.2324 21.0668 15.9378 19.7384 15.9378C18.4104 15.9378 17.5412 15.5048 17.5412 15.5048L17.8306 13.783C18.6276 14.4392 21.0426 14.6256 21.0426 13.585C21.0426 13.1478 20.5672 12.8899 20.0159 12.5908C19.2553 12.1783 18.3502 11.6873 18.3502 10.5387C18.3502 8.43303 20.6442 8 21.6102 8C22.5038 8 23.361 8.33436 23.361 8.33436ZM29.856 15.8055H28.0686L27.8406 14.6665H25.366L24.9602 15.8055H22.931L25.8342 8.70831C25.8342 8.70831 26.0102 8.13682 26.7328 8.13682H28.2976L29.856 15.8055ZM12.7576 8.13703L10.9018 13.4115L10.6822 12.2757L10.6824 12.2761L10.0274 8.82749C10.0274 8.82749 9.9482 8.13703 9.104 8.13703H6.036L6 8.26687C6 8.26687 6.9382 8.46708 8.0362 9.14338L9.7274 15.8057H11.7556L14.8526 8.13703H12.7576ZM16.3418 15.8055H14.3952L15.6118 8.13703H17.5586L16.3418 15.8055ZM25.9266 13.0929L26.9494 10.2232L27.5248 13.0929H25.9266Z" fill="#5294AB"/>
</svg>
