<svg width="35" height="35" viewBox="0 0 35 35" fill="none" xmlns="http://www.w3.org/2000/svg">
<path fill-rule="evenodd" clip-rule="evenodd" d="M25.849 4.375H9.89239C7.06073 4.375 4.375 6.59537 4.375 9.42308V25.3876C4.375 28.2153 7.06073 30.625 9.89239 30.625H25.853C28.6807 30.625 30.625 28.2153 30.625 25.3876V9.42308C30.625 6.59537 28.6807 4.375 25.849 4.375ZM24.8828 19.5271C26.3184 20.8601 26.6181 21.5109 26.6654 21.5897C27.2609 22.5796 26.0068 22.6546 26.0068 22.6546L23.609 22.6901C23.609 22.6901 23.0923 22.7926 22.414 22.3233C21.5148 21.712 20.6708 20.1108 20.0083 20.3159C19.3418 20.5288 19.3615 21.9723 19.3615 21.9723C19.3615 21.9723 19.3654 22.2247 19.2156 22.3903C19.0499 22.5639 18.7265 22.5481 18.7265 22.5481H17.6499C17.6499 22.5481 15.2796 22.7453 13.1934 20.5722C10.9178 18.202 8.91038 13.5286 8.91038 13.5286C8.91038 13.5286 8.79601 13.2328 8.91827 13.0829C9.06025 12.9173 9.44674 12.9094 9.44674 12.9094L12.0142 12.8976C12.0142 12.8976 12.2547 12.941 12.4283 13.0672C12.5702 13.1697 12.6531 13.3669 12.6531 13.3669C12.6531 13.3669 13.0672 14.4199 13.6153 15.3664C14.6881 17.22 15.1889 17.6262 15.5518 17.429C16.0842 17.1372 15.9225 14.8103 15.9225 14.8103C15.9225 14.8103 15.9343 13.9624 15.6543 13.5838C15.4413 13.2959 15.0391 13.2091 14.8576 13.1855C14.7117 13.1658 14.9523 12.8305 15.2599 12.6807C15.7213 12.4559 16.5377 12.4401 17.5 12.4519C18.2493 12.4598 18.4662 12.5071 18.7581 12.5781C19.6454 12.7911 19.3457 13.6153 19.3457 15.5951C19.3457 16.2301 19.2313 17.1214 19.6888 17.4172C19.886 17.5434 20.3672 17.4369 21.5661 15.394C22.1379 14.4238 22.5639 13.288 22.5639 13.288C22.5639 13.288 22.6585 13.0829 22.8044 12.9962C22.9543 12.9094 23.1554 12.937 23.1554 12.937L25.8569 12.9173C25.8569 12.9173 26.6654 12.8226 26.7995 13.1894C26.9375 13.572 26.4958 14.4712 25.3916 15.9422C23.5774 18.3558 23.3763 18.131 24.8828 19.5271Z" fill="white"/>
</svg>
