<svg width="12" height="12" viewBox="0 0 12 12" fill="none" xmlns="http://www.w3.org/2000/svg">
<path d="M12 10.3333C12 11.254 11.254 12 10.3333 12H1.66667C0.746333 12 0 11.254 0 10.3333V1.66667C0 0.746 0.746333 0 1.66667 0H10.3333C11.254 0 12 0.746 12 1.66667V10.3333Z" fill="#1976D2"/>
<path d="M9.979 4.0135C9.99433 3.96317 10.0017 3.9165 9.99967 3.87484C9.99467 3.75417 9.91167 3.6665 9.71633 3.6665H8.84367C8.62333 3.6665 8.52167 3.79984 8.46233 3.9335C8.46233 3.9335 7.91833 5.05317 7.29133 5.7915C7.088 6.00517 6.98467 5.99984 6.87467 5.99984C6.81567 5.99984 6.66667 5.9285 6.66667 5.73284V4.0045C6.66667 3.77317 6.609 3.6665 6.42267 3.6665H4.873C4.73733 3.6665 4.66667 3.77317 4.66667 3.88017C4.66667 4.1025 4.966 4.15584 5 4.77884V5.9865C5 6.27984 4.949 6.33317 4.839 6.33317C4.54233 6.33317 3.95833 5.33317 3.56733 4.0225C3.48267 3.7645 3.398 3.6665 3.17767 3.6665H2.29667C2.04233 3.6665 2 3.79117 2 3.9245C2 4.16484 2.2 5.46417 3.29167 6.95817C4.08333 8.04151 5.12633 8.66651 6.04967 8.66651C6.609 8.66651 6.66633 8.52417 6.66633 8.30184V7.31117C6.66667 7.04417 6.72767 6.99984 6.90567 6.99984C7.03267 6.99984 7.29167 7.08317 7.79167 7.6665C8.36833 8.33917 8.473 8.66651 8.80367 8.66651H9.67633C9.879 8.66651 9.99533 8.58151 10 8.41651C10.001 8.37451 9.995 8.32751 9.98133 8.27517C9.91667 8.08317 9.62 7.61384 9.25 7.1665C9.045 6.91884 8.84267 6.6735 8.74967 6.54017C8.68733 6.45317 8.66367 6.39184 8.66667 6.33317C8.66967 6.2715 8.70167 6.21284 8.74967 6.13084C8.741 6.13084 9.869 4.54717 9.979 4.0135Z" fill="white"/>
</svg>
