<svg width="35" height="35" viewBox="0 0 35 35" fill="none" xmlns="http://www.w3.org/2000/svg">
<path d="M15.8125 14.9167V19.7084L20.2292 17.3334L15.8125 14.9167Z" fill="white"/>
<path d="M24.0417 4.375H10.9375C7.33333 4.375 4.375 7.33333 4.375 10.9583V24.0625C4.375 27.6667 7.33333 30.625 10.9375 30.625H24.0417C27.6667 30.625 30.625 27.6667 30.625 24.0417V10.9583C30.625 7.33333 27.6667 4.375 24.0417 4.375ZM25.625 18.1458C25.625 19.5208 25.5 20.9167 25.5 20.9167C25.5 20.9167 25.3542 22.0833 24.875 22.6042C24.25 23.2917 23.5625 23.2917 23.25 23.3333C20.9583 23.5 17.5208 23.5208 17.5208 23.5208C17.5208 23.5208 13.25 23.4583 11.9375 23.3333C11.5833 23.2708 10.75 23.2917 10.125 22.6042C9.625 22.0833 9.5 20.9167 9.5 20.9167C9.5 20.9167 9.375 19.5208 9.375 18.1458V16.8542C9.375 15.4792 9.5 14.0833 9.5 14.0833C9.5 14.0833 9.64583 12.9167 10.125 12.3958C10.75 11.7083 11.4375 11.6875 11.75 11.6458C14.0625 11.4792 17.5 11.4583 17.5 11.4583C17.5 11.4583 20.9375 11.4792 23.2292 11.6458C23.5417 11.6875 24.25 11.7083 24.875 12.375C25.375 12.8958 25.5 14.0833 25.5 14.0833C25.5 14.0833 25.625 15.4792 25.625 16.8542V18.1458Z" fill="white"/>
</svg>
