<svg width="17" height="18" fill="none" xmlns="http://www.w3.org/2000/svg"><path d="M15.947 4.123a2.583 2.583 0 00-.7-1.308 2.096 2.096 0 00-.368-.297l-.018-.017c-.018-.018-.035-.018-.053-.035a.73.73 0 00-.157-.088h-.018a2.6 2.6 0 00-1.226-.296H12.32v-.75A.332.332 0 0011.987 1a.332.332 0 00-.333.332v.715h-6.29v-.715A.344.344 0 005.03 1a.332.332 0 00-.333.332v.715H3.611c-.333 0-.666.07-.964.192-.333.14-.63.331-.876.576-.14.14-.263.296-.368.453a3.086 3.086 0 00-.263.541c-.035.105-.07.21-.087.314A2.652 2.652 0 001 4.647v9.788A2.565 2.565 0 003.576 17h9.848c.719 0 1.367-.297 1.822-.75A2.554 2.554 0 0016 14.435V4.647c0-.175-.018-.35-.053-.524zM1.683 4.63c0-.14.018-.261.035-.384.018-.122.07-.244.106-.366a2.4 2.4 0 01.245-.419c.053-.07.105-.122.158-.192.105-.104.227-.192.35-.279.298-.174.63-.28.999-.28h1.086v.716c0 .175.14.332.333.332.176 0 .333-.14.333-.332V2.71h6.379v.715a.333.333 0 00.666 0V2.71h1.086c.368 0 .719.105.999.28.123.086.245.174.35.278a1.848 1.848 0 01.561 1.361V6.06H1.683V4.63zm13.704 9.789c0 .54-.21 1.03-.561 1.378a1.94 1.94 0 01-1.367.558H3.611a1.94 1.94 0 01-1.367-.558 1.922 1.922 0 01-.56-1.36v-7.73h13.703v7.712z" fill="#303030" stroke="#303030" stroke-width=".3"/></svg>