<svg width="18" height="18" fill="none" xmlns="http://www.w3.org/2000/svg"><g clip-path="url(#clip0)" fill="#303030" stroke="#fff" stroke-width=".2"><path d="M9.75 13.5a.75.75 0 11-1.5 0 .75.75 0 011.5 0z"/><path d="M9 18c-4.963 0-9-4.037-9-9s4.037-9 9-9 9 4.037 9 9-4.037 9-9 9zM9 1.125C4.658 1.125 1.125 4.658 1.125 9c0 4.342 3.533 7.875 7.875 7.875 4.342 0 7.875-3.533 7.875-7.875 0-4.342-3.533-7.875-7.875-7.875z"/><path d="M9 11.063a.563.563 0 01-.562-.563v-.757c0-.714.453-1.354 1.126-1.592.896-.316 1.499-1.27 1.499-1.964A2.064 2.064 0 009 4.125a2.064 2.064 0 00-2.063 2.062.563.563 0 01-1.125 0A3.191 3.191 0 019 3a3.191 3.191 0 013.188 3.187c0 1.252-.988 2.58-2.25 3.025a.563.563 0 00-.375.531v.757c0 .31-.252.563-.563.563z"/></g><defs><clipPath id="clip0"><path fill="#fff" d="M0 0h18v18H0z"/></clipPath></defs></svg>